<svg xmlns="http://www.w3.org/2000/svg" viewBox="0 0 32 32" fill="none">
  <defs>
    <linearGradient id="bg" x1="0" y1="0" x2="32" y2="32" gradientUnits="userSpaceOnUse">
      <stop offset="0%" stop-color="#6366f1"/>
      <stop offset="100%" stop-color="#06b6d4"/>
    </linearGradient>
    <linearGradient id="icon" x1="0" y1="0" x2="32" y2="32" gradientUnits="userSpaceOnUse">
      <stop offset="0%" stop-color="#ffffff" stop-opacity="1"/>
      <stop offset="100%" stop-color="#e0f2fe" stop-opacity="0.9"/>
    </linearGradient>
  </defs>

  <!-- rounded square background -->
  <rect width="32" height="32" rx="8" fill="url(#bg)"/>

  <!-- gear shape -->
  <path
    fill="url(#icon)"
    d="M16 10.5a5.5 5.5 0 1 0 0 11 5.5 5.5 0 0 0 0-11Zm0 8.5a3 3 0 1 1 0-6 3 3 0 0 1 0 6Z"
  />
  <path
    fill="url(#icon)"
    d="M27.2 13.6h-1.36a10.1 10.1 0 0 0-.84-2.02l.96-.96a.8.8 0 0 0 0-1.13l-2.45-2.45a.8.8 0 0 0-1.13 0l-.96.96a10.1 10.1 0 0 0-2.02-.84V5.8a.8.8 0 0 0-.8-.8h-3.2a.8.8 0 0 0-.8.8v1.36c-.71.2-1.39.48-2.02.84l-.96-.96a.8.8 0 0 0-1.13 0L8.55 9.49a.8.8 0 0 0 0 1.13l.96.96c-.36.63-.64 1.31-.84 2.02H3.8a.8.8 0 0 0-.8.8v3.2c0 .44.36.8.8.8h1.36c.2.71.48 1.39.84 2.02l-.96.96a.8.8 0 0 0 0 1.13l2.45 2.45c.31.31.82.31 1.13 0l.96-.96c.63.36 1.31.64 2.02.84v1.36c0 .44.36.8.8.8h3.2c.44 0 .8-.36.8-.8v-1.36c.71-.2 1.39-.48 2.02-.84l.96.96c.31.31.82.31 1.13 0l2.45-2.45a.8.8 0 0 0 0-1.13l-.96-.96c.36-.63.64-1.31.84-2.02h1.36c.44 0 .8-.36.8-.8v-3.2a.8.8 0 0 0-.8-.8Zm-.8 3.2h-1.18a.8.8 0 0 0-.78.62 8.43 8.43 0 0 1-1.1 2.65.8.8 0 0 0 .1.99l.84.84-1.32 1.32-.84-.84a.8.8 0 0 0-.99-.1 8.43 8.43 0 0 1-2.65 1.1.8.8 0 0 0-.62.78V25.4h-1.6v-1.18a.8.8 0 0 0-.62-.78 8.43 8.43 0 0 1-2.65-1.1.8.8 0 0 0-.99.1l-.84.84-1.32-1.32.84-.84a.8.8 0 0 0 .1-.99 8.43 8.43 0 0 1-1.1-2.65.8.8 0 0 0-.78-.62H4.6v-1.6h1.18c.38 0 .71-.27.78-.62a8.43 8.43 0 0 1 1.1-2.65.8.8 0 0 0-.1-.99l-.84-.84 1.32-1.32.84.84c.27.27.68.32.99.1a8.43 8.43 0 0 1 2.65-1.1.8.8 0 0 0 .62-.78V6.6h1.6v1.18c0 .38.27.71.62.78a8.43 8.43 0 0 1 2.65 1.1.8.8 0 0 0 .99-.1l.84-.84 1.32 1.32-.84.84a.8.8 0 0 0-.1.99 8.43 8.43 0 0 1 1.1 2.65c.07.35.4.62.78.62h1.18v1.6Z"
  />
</svg>
